<?xml version="1.0" encoding="UTF-8" standalone="no"?>
<!-- Created with Inkscape (http://www.inkscape.org/) -->

<svg
   xmlns:dc="http://purl.org/dc/elements/1.1/"
   xmlns:cc="http://creativecommons.org/ns#"
   xmlns:rdf="http://www.w3.org/1999/02/22-rdf-syntax-ns#"
   xmlns:svg="http://www.w3.org/2000/svg"
   xmlns="http://www.w3.org/2000/svg"
   xmlns:sodipodi="http://sodipodi.sourceforge.net/DTD/sodipodi-0.dtd"
   xmlns:inkscape="http://www.inkscape.org/namespaces/inkscape"
   width="210mm"
   height="297mm"
   viewBox="0 0 744.09448819 1052.3622047"
   id="svg2"
   version="1.1"
   inkscape:version="0.91 r13725"
   sodipodi:docname="logo.svg">
  <defs
     id="defs4" />
  <sodipodi:namedview
     id="base"
     pagecolor="#ffffff"
     bordercolor="#666666"
     borderopacity="1.0"
     inkscape:pageopacity="0.0"
     inkscape:pageshadow="2"
     inkscape:zoom="2.2800001"
     inkscape:cx="-1206.6845"
     inkscape:cy="499.68223"
     inkscape:document-units="px"
     inkscape:current-layer="layer1"
     showgrid="false" />
  <metadata
     id="metadata7">
    <rdf:RDF>
      <cc:Work
         rdf:about="">
        <dc:format>image/svg+xml</dc:format>
        <dc:type
           rdf:resource="http://purl.org/dc/dcmitype/StillImage" />
        <dc:title />
      </cc:Work>
    </rdf:RDF>
  </metadata>
  <g
     inkscape:label="Camada 1"
     inkscape:groupmode="layer"
     id="layer1">
    <g
       id="g4545"
       transform="matrix(-0.10433611,0,0,0.10592118,-1342.0262,540.45727)"
       style="fill:#b3b3b3"
       inkscape:export-xdpi="90"
       inkscape:export-ydpi="90">
      <rect
         ry="181.42859"
         rx="181.42859"
         y="51.505062"
         x="-1223.7144"
         height="362.85718"
         width="362.85718"
         id="rect4543"
         style="color:#000000;clip-rule:nonzero;display:inline;overflow:visible;visibility:visible;opacity:1;isolation:auto;mix-blend-mode:normal;color-interpolation:sRGB;color-interpolation-filters:linearRGB;solid-color:#000000;solid-opacity:1;fill:#ececec;fill-opacity:1;fill-rule:nonzero;stroke:none;stroke-width:1;stroke-linecap:butt;stroke-linejoin:miter;stroke-miterlimit:4;stroke-dasharray:none;stroke-dashoffset:0;stroke-opacity:1;color-rendering:auto;image-rendering:auto;shape-rendering:auto;text-rendering:auto;enable-background:accumulate" />
      <g
         transform="matrix(1.11359,-0.29835703,0.29838553,1.1134836,-544.16975,-83.362019)"
         style="fill:#b3b3b3"
         id="g4535">
        <path
           inkscape:connector-curvature="0"
           id="path3336"
           d="m -494.61719,175.80273 a 3.50035,3.50035 0 0 0 -3.23828,2.59766 c -30.11001,107.11737 -27.33117,209.98389 -0.006,309.40625 a 3.50035,3.50035 0 1 0 6.75,-1.85547 c -27.03095,-98.35136 -29.77004,-199.76918 -0.006,-305.65625 a 3.50035,3.50035 0 0 0 -3.5,-4.49219 z"
           style="color:#000000;font-style:normal;font-variant:normal;font-weight:normal;font-stretch:normal;font-size:medium;line-height:normal;font-family:sans-serif;text-indent:0;text-align:start;text-decoration:none;text-decoration-line:none;text-decoration-style:solid;text-decoration-color:#000000;letter-spacing:normal;word-spacing:normal;text-transform:none;direction:ltr;block-progression:tb;writing-mode:lr-tb;baseline-shift:baseline;text-anchor:start;white-space:normal;clip-rule:nonzero;display:inline;overflow:visible;visibility:visible;opacity:1;isolation:auto;mix-blend-mode:normal;color-interpolation:sRGB;color-interpolation-filters:linearRGB;solid-color:#000000;solid-opacity:1;fill:#b3b3b3;fill-opacity:1;fill-rule:evenodd;stroke:none;stroke-width:7;stroke-linecap:round;stroke-linejoin:miter;stroke-miterlimit:4;stroke-dasharray:none;stroke-dashoffset:0;stroke-opacity:1;color-rendering:auto;image-rendering:auto;shape-rendering:auto;text-rendering:auto;enable-background:accumulate" />
        <g
           style="fill:#b3b3b3"
           id="g4531"
           transform="matrix(0.69778086,0.18614735,-0.18613674,0.69774108,-111.57695,126.27186)">
          <path
             id="path4138"
             d="m -496.98633,-35.671875 0,177.630855 5,0 0,-177.630855 -5,0 z m -100.22265,26.8554688 -4.33204,2.5 88.81641,153.8320262 4.33203,-2.5 -88.8164,-153.8320262 z m 205.44531,0 -88.81445,153.8320262 4.33203,2.5 88.81445,-153.8320262 -4.33203,-2.5 z m -136.39453,48.5546872 -4.82813,1.292969 30.55664,114.03906 4.82813,-1.29297 -30.55664,-114.039059 z m 67.3457,0 -30.55664,114.039059 4.82812,1.29297 30.55664,-114.03906 -4.82812,-1.292969 z m -214.0957,27.3125 -2.5,4.332031 153.83203,88.816408 2.5,-4.33203 -153.83203,-88.816409 z m 360.84375,0 -153.83203,88.814449 2.5,4.33204 153.83203,-88.814458 -2.5,-4.332031 z m -277.2461,7.652344 -3.53515,3.535156 83.48437,83.482419 3.53516,-3.53515 -83.48438,-83.482425 z m 193.64844,0 -83.48242,83.482425 3.53515,3.53515 83.48243,-83.482419 -3.53516,-3.535156 z m -230.85547,61.857425 -1.29297,4.82812 114.03907,30.55664 1.29296,-4.82812 -114.03906,-30.55664 z m 268.0625,0 -114.03906,30.55664 1.29297,4.82812 114.03906,-30.55664 -1.29297,-4.82812 z m -343.80859,35.04492 0,5 177.63086,0 0,-5 -177.63086,0 z m 241.92383,0 0,5 177.63086,0 0,-5 -177.63086,0 z m -53.43164,6.57226 -114.03907,30.55665 1.29297,4.82812 114.03906,-30.55664 -1.29296,-4.82813 z m 42.57031,0 -1.29297,4.82813 114.03906,30.55664 1.29297,-4.82812 -114.03906,-30.55665 z m -50.375,9.83594 -153.83203,88.81445 2.5,4.33204 153.83203,-88.81446 -2.5,-4.33203 z m 58.17969,0 -2.5,4.33203 153.83203,88.81446 2.5,-4.33204 -153.83203,-88.81445 z m -45.96485,0.38867 -83.48437,83.48243 3.53515,3.53515 83.48438,-83.48242 -3.53516,-3.53516 z m 33.75195,0 -3.53515,3.53516 83.48242,83.48242 3.53516,-3.53515 -83.48243,-83.48243 z m -35.11523,12.29297 -88.81641,153.83203 4.33204,2.5 88.8164,-153.83203 -4.33203,-2.5 z m 36.47852,0 -4.33203,2.5 88.81445,153.83203 4.33203,-2.5 -88.81445,-153.83203 z"
             style="color:#000000;font-style:normal;font-variant:normal;font-weight:normal;font-stretch:normal;font-size:medium;line-height:normal;font-family:sans-serif;text-indent:0;text-align:start;text-decoration:none;text-decoration-line:none;text-decoration-style:solid;text-decoration-color:#000000;letter-spacing:normal;word-spacing:normal;text-transform:none;direction:ltr;block-progression:tb;writing-mode:lr-tb;baseline-shift:baseline;text-anchor:start;white-space:normal;clip-rule:nonzero;display:inline;overflow:visible;visibility:visible;opacity:1;isolation:auto;mix-blend-mode:normal;color-interpolation:sRGB;color-interpolation-filters:linearRGB;solid-color:#000000;solid-opacity:1;fill:#b3b3b3;fill-opacity:1;fill-rule:evenodd;stroke:none;stroke-width:5;stroke-linecap:round;stroke-linejoin:miter;stroke-miterlimit:4;stroke-dasharray:none;stroke-dashoffset:0;stroke-opacity:1;color-rendering:auto;image-rendering:auto;shape-rendering:auto;text-rendering:auto;enable-background:accumulate"
             inkscape:connector-curvature="0" />
          <path
             id="path4142"
             d="m -494.48633,-50.841797 a 14.632344,14.632344 0 0 0 -14.63281,14.632813 14.632344,14.632344 0 0 0 14.63281,14.632812 14.632344,14.632344 0 0 0 14.63281,-14.632812 14.632344,14.632344 0 0 0 -14.63281,-14.632813 z m -105.50195,28.181641 a 14.632344,14.632344 0 0 0 -6.9707,1.955078 14.632344,14.632344 0 0 0 -5.35743,19.98828112 14.632344,14.632344 0 0 0 19.98829,5.35546878 14.632344,14.632344 0 0 0 5.35742,-19.9863279 14.632344,14.632344 0 0 0 -13.01758,-7.3125 z m 209.96875,0.01172 a 14.632344,14.632344 0 0 0 -11.98047,7.30078 14.632344,14.632344 0 0 0 5.35547,19.9863279 14.632344,14.632344 0 0 0 19.98828,-5.35546878 14.632344,14.632344 0 0 0 -5.35547,-19.98828112 14.632344,14.632344 0 0 0 -8.00781,-1.94336 z m -68.375,52.962891 a 9.7254438,9.7254438 0 0 0 -9.30664,7.207031 9.7254438,9.7254438 0 0 0 6.87695,11.91211 9.7254438,9.7254438 0 0 0 11.91211,-6.876953 9.7254438,9.7254438 0 0 0 -6.87695,-11.91211 9.7254438,9.7254438 0 0 0 -2.60547,-0.330078 z m -71.90039,0.0059 a 9.7254438,9.7254438 0 0 0 -2.88672,0.324219 9.7254438,9.7254438 0 0 0 -6.87695,11.91211 9.7254438,9.7254438 0 0 0 11.91015,6.876953 9.7254438,9.7254438 0 0 0 6.87696,-11.91211 9.7254438,9.7254438 0 0 0 -9.02344,-7.201172 z m 217.60156,24 a 14.632344,14.632344 0 0 0 -6.9707,1.955079 14.632344,14.632344 0 0 0 -5.35547,19.988281 14.632344,14.632344 0 0 0 19.98828,5.357422 14.632344,14.632344 0 0 0 5.35547,-19.988282 14.632344,14.632344 0 0 0 -13.01758,-7.3125 z m -364.62109,0.01172 a 14.632344,14.632344 0 0 0 -11.98243,7.300781 14.632344,14.632344 0 0 0 5.35743,19.988282 14.632344,14.632344 0 0 0 19.98828,-5.357422 14.632344,14.632344 0 0 0 -5.35742,-19.988281 14.632344,14.632344 0 0 0 -8.00586,-1.94336 z m 84.12695,12.16211 a 9.7254438,9.7254438 0 0 0 -7.01953,2.847656 9.7254438,9.7254438 0 0 0 0,13.753906 9.7254438,9.7254438 0 0 0 13.75391,0 9.7254438,9.7254438 0 0 0 0,-13.753906 9.7254438,9.7254438 0 0 0 -6.73438,-2.847656 z m 197.6875,0 a 9.7254438,9.7254438 0 0 0 -7.01953,2.847656 9.7254438,9.7254438 0 0 0 0,13.753906 9.7254438,9.7254438 0 0 0 13.75391,0 9.7254438,9.7254438 0 0 0 0,-13.753906 9.7254438,9.7254438 0 0 0 -6.73438,-2.8477 z M -629.59766,129.1582 a 9.7254438,9.7254438 0 0 0 -9.30664,7.20703 9.7254438,9.7254438 0 0 0 6.87696,11.91211 9.7254438,9.7254438 0 0 0 11.91211,-6.87695 9.7254438,9.7254438 0 0 0 -6.87696,-11.91211 9.7254438,9.7254438 0 0 0 -2.60547,-0.33008 z m 270.50586,0.006 a 9.7254438,9.7254438 0 0 0 -2.88867,0.32422 9.7254438,9.7254438 0 0 0 -6.87695,11.91211 9.7254438,9.7254438 0 0 0 11.91211,6.87695 9.7254438,9.7254438 0 0 0 6.87695,-11.91211 9.7254438,9.7254438 0 0 0 -9.02344,-7.20117 z m -345.70898,30.3086 a 14.632344,14.632344 0 0 0 -14.63281,14.63281 14.632344,14.632344 0 0 0 14.63281,14.63281 14.632344,14.632344 0 0 0 14.63281,-14.63281 14.632344,14.632344 0 0 0 -14.63281,-14.63281 z m 420.6289,0 a 14.632344,14.632344 0 0 0 -14.63085,14.63281 14.632344,14.632344 0 0 0 14.63085,14.63281 14.632344,14.632344 0 0 0 14.63282,-14.63281 14.632344,14.632344 0 0 0 -14.63282,-14.63281 z m -75.3789,42.04296 a 9.7254438,9.7254438 0 0 0 -9.30664,7.20899 9.7254438,9.7254438 0 0 0 6.87695,11.91016 9.7254438,9.7254438 0 0 0 11.91211,-6.87696 9.7254438,9.7254438 0 0 0 -6.87695,-11.91015 9.7254438,9.7254438 0 0 0 -2.60547,-0.33204 z m -269.58789,0.008 a 9.7254438,9.7254438 0 0 0 -2.88867,0.32422 9.7254438,9.7254438 0 0 0 -6.87696,11.91015 9.7254438,9.7254438 0 0 0 11.91211,6.87696 9.7254438,9.7254438 0 0 0 6.87696,-11.91016 9.7254438,9.7254438 0 0 0 -9.02344,-7.20117 z m 35.95117,62.6582 a 9.7254438,9.7254438 0 0 0 -7.01953,2.84766 9.7254438,9.7254438 0 0 0 0,13.7539 9.7254438,9.7254438 0 0 0 13.75391,0 9.7254438,9.7254438 0 0 0 0,-13.7539 9.7254438,9.7254438 0 0 0 -6.73438,-2.84766 z m 197.6875,0 a 9.7254438,9.7254438 0 0 0 -7.01953,2.84766 9.7254438,9.7254438 0 0 0 0,13.7539 9.7254438,9.7254438 0 0 0 13.75391,0 9.7254438,9.7254438 0 0 0 0,-13.7539 9.7254438,9.7254438 0 0 0 -6.73438,-2.84766 z m -281.46875,0.45313 a 14.632344,14.632344 0 0 0 -6.9707,1.95703 14.632344,14.632344 0 0 0 -5.35743,19.98828 14.632344,14.632344 0 0 0 19.98829,5.35547 14.632344,14.632344 0 0 0 5.35742,-19.98828 14.632344,14.632344 0 0 0 -13.01758,-7.3125 z m 363.92969,0.0117 a 14.632344,14.632344 0 0 0 -11.98047,7.30079 14.632344,14.632344 0 0 0 5.35547,19.98828 14.632344,14.632344 0 0 0 19.98828,-5.35547 14.632344,14.632344 0 0 0 -5.35547,-19.98828 14.632344,14.632344 0 0 0 -8.00781,-1.94532 z m -76.63477,76.96875 a 14.632344,14.632344 0 0 0 -6.9707,1.95704 14.632344,14.632344 0 0 0 -5.35547,19.98828 14.632344,14.632344 0 0 0 19.98828,5.35547 14.632344,14.632344 0 0 0 5.35547,-19.98829 14.632344,14.632344 0 0 0 -13.01758,-7.3125 z m -210.66015,0.0117 a 14.632344,14.632344 0 0 0 -11.98047,7.30078 14.632344,14.632344 0 0 0 5.35547,19.98829 14.632344,14.632344 0 0 0 19.98828,-5.35547 14.632344,14.632344 0 0 0 -5.35742,-19.98828 14.632344,14.632344 0 0 0 -8.00586,-1.94532 z"
             style="color:#000000;clip-rule:nonzero;display:inline;overflow:visible;visibility:visible;opacity:1;isolation:auto;mix-blend-mode:normal;color-interpolation:sRGB;color-interpolation-filters:linearRGB;solid-color:#000000;solid-opacity:1;fill:#b3b3b3;fill-opacity:1;fill-rule:nonzero;stroke:#cccccc;stroke-width:11.42602921;stroke-linecap:butt;stroke-linejoin:miter;stroke-miterlimit:4;stroke-dasharray:none;stroke-dashoffset:0;stroke-opacity:1;color-rendering:auto;image-rendering:auto;shape-rendering:auto;text-rendering:auto;enable-background:accumulate"
             inkscape:connector-curvature="0" />
        </g>
      </g>
    </g>
    <g
       id="g4761"
       inkscape:export-xdpi="90"
       inkscape:export-ydpi="90"
       transform="translate(-120.95248,-78.774177)">
      <path
         inkscape:connector-curvature="0"
         id="path4759"
         d="m -1008.0408,550.48029 c -1.1691,-10e-4 -2.1225,0.9679 -2.1239,2.14015 0,1.08202 0.8132,1.98405 1.8571,2.11907 l 0,16.69783 0.5196,0 0.035,-16.69783 c 1.0454,-0.1318 1.861,-1.03163 1.8621,-2.11438 0,-1.17218 -0.9478,-2.14354 -2.1169,-2.14484 z"
         style="color:#000000;font-style:normal;font-variant:normal;font-weight:normal;font-stretch:normal;font-size:medium;line-height:normal;font-family:sans-serif;text-indent:0;text-align:start;text-decoration:none;text-decoration-line:none;text-decoration-style:solid;text-decoration-color:#000000;letter-spacing:normal;word-spacing:normal;text-transform:none;direction:ltr;block-progression:tb;writing-mode:lr-tb;baseline-shift:baseline;text-anchor:start;white-space:normal;clip-rule:nonzero;display:inline;overflow:visible;visibility:visible;opacity:1;isolation:auto;mix-blend-mode:normal;color-interpolation:sRGB;color-interpolation-filters:linearRGB;solid-color:#000000;solid-opacity:1;fill:#808080;fill-opacity:1;fill-rule:evenodd;stroke:none;stroke-width:5;stroke-linecap:round;stroke-linejoin:miter;stroke-miterlimit:4;stroke-dasharray:none;stroke-dashoffset:0;stroke-opacity:1;color-rendering:auto;image-rendering:auto;shape-rendering:auto;text-rendering:auto;enable-background:accumulate" />
      <path
         inkscape:connector-curvature="0"
         id="path4757"
         d="m -1018.8819,553.44609 c -0.4073,-0.021 -0.8125,0.0794 -1.1649,0.28528 -1.0101,0.59036 -1.3544,1.90252 -0.7765,2.92136 0.5321,0.93808 1.6844,1.30912 2.6525,0.90284 l 8.2075,14.46642 0.4513,-0.2643 -8.205,-14.46409 c 0.8422,-0.64091 1.1079,-1.83091 0.573,-2.77399 -0.358,-0.63116 -1.0142,-1.038 -1.7379,-1.07359 z"
         style="color:#000000;font-style:normal;font-variant:normal;font-weight:normal;font-stretch:normal;font-size:medium;line-height:normal;font-family:sans-serif;text-indent:0;text-align:start;text-decoration:none;text-decoration-line:none;text-decoration-style:solid;text-decoration-color:#000000;letter-spacing:normal;word-spacing:normal;text-transform:none;direction:ltr;block-progression:tb;writing-mode:lr-tb;baseline-shift:baseline;text-anchor:start;white-space:normal;clip-rule:nonzero;display:inline;overflow:visible;visibility:visible;opacity:1;isolation:auto;mix-blend-mode:normal;color-interpolation:sRGB;color-interpolation-filters:linearRGB;solid-color:#000000;solid-opacity:1;fill:#808080;fill-opacity:1;fill-rule:evenodd;stroke:none;stroke-width:5;stroke-linecap:round;stroke-linejoin:miter;stroke-miterlimit:4;stroke-dasharray:none;stroke-dashoffset:0;stroke-opacity:1;color-rendering:auto;image-rendering:auto;shape-rendering:auto;text-rendering:auto;enable-background:accumulate" />
      <path
         inkscape:connector-curvature="0"
         id="path4755"
         d="m -997.05249,553.46706 c -0.77754,-0.021 -1.50369,0.39664 -1.88966,1.07356 -0.53665,0.94126 -0.27619,2.12882 0.56358,2.77169 l -8.24033,14.44772 0.4517,0.26675 8.23998,-14.45237 c 0.96807,0.41178 2.12424,0.0451 2.6595,-0.8935 0.58035,-1.01762 0.23773,-2.33118 -0.77195,-2.92367 -0.30766,-0.18075 -0.65622,-0.28109 -1.01282,-0.29018 z"
         style="color:#000000;font-style:normal;font-variant:normal;font-weight:normal;font-stretch:normal;font-size:medium;line-height:normal;font-family:sans-serif;text-indent:0;text-align:start;text-decoration:none;text-decoration-line:none;text-decoration-style:solid;text-decoration-color:#000000;letter-spacing:normal;word-spacing:normal;text-transform:none;direction:ltr;block-progression:tb;writing-mode:lr-tb;baseline-shift:baseline;text-anchor:start;white-space:normal;clip-rule:nonzero;display:inline;overflow:visible;visibility:visible;opacity:1;isolation:auto;mix-blend-mode:normal;color-interpolation:sRGB;color-interpolation-filters:linearRGB;solid-color:#000000;solid-opacity:1;fill:#808080;fill-opacity:1;fill-rule:evenodd;stroke:none;stroke-width:5;stroke-linecap:round;stroke-linejoin:miter;stroke-miterlimit:4;stroke-dasharray:none;stroke-dashoffset:0;stroke-opacity:1;color-rendering:auto;image-rendering:auto;shape-rendering:auto;text-rendering:auto;enable-background:accumulate" />
      <path
         inkscape:connector-curvature="0"
         id="path4749"
         d="m -1026.9489,561.56565 c -0.7775,-0.021 -1.504,0.3943 -1.89,1.07122 -0.58,1.01754 -0.2377,2.33107 0.772,2.9237 0.9296,0.54609 2.1113,0.27934 2.7458,-0.56134 l 14.2278,8.36174 0.2622,-0.45841 -14.2278,-8.35943 c 0.4094,-0.9772 0.056,-2.14169 -0.8772,-2.68981 -0.3076,-0.18075 -0.6562,-0.27865 -1.0128,-0.28774 z"
         style="color:#000000;font-style:normal;font-variant:normal;font-weight:normal;font-stretch:normal;font-size:medium;line-height:normal;font-family:sans-serif;text-indent:0;text-align:start;text-decoration:none;text-decoration-line:none;text-decoration-style:solid;text-decoration-color:#000000;letter-spacing:normal;word-spacing:normal;text-transform:none;direction:ltr;block-progression:tb;writing-mode:lr-tb;baseline-shift:baseline;text-anchor:start;white-space:normal;clip-rule:nonzero;display:inline;overflow:visible;visibility:visible;opacity:1;isolation:auto;mix-blend-mode:normal;color-interpolation:sRGB;color-interpolation-filters:linearRGB;solid-color:#000000;solid-opacity:1;fill:#808080;fill-opacity:1;fill-rule:evenodd;stroke:none;stroke-width:5;stroke-linecap:round;stroke-linejoin:miter;stroke-miterlimit:4;stroke-dasharray:none;stroke-dashoffset:0;stroke-opacity:1;color-rendering:auto;image-rendering:auto;shape-rendering:auto;text-rendering:auto;enable-background:accumulate" />
      <path
         inkscape:connector-curvature="0"
         id="path4747"
         d="m -989.00407,561.60796 c -0.40765,-0.021 -0.81215,0.0794 -1.16491,0.28528 -0.93381,0.54585 -1.28902,1.7095 -0.88172,2.68747 l -14.2488,8.32902 0.2587,0.4561 14.24916,-8.32902 c 0.6328,0.84295 1.81484,1.11495 2.74585,0.57071 1.01003,-0.59032 1.35685,-1.90483 0.77894,-2.9237 -0.358,-0.63126 -1.01422,-1.04045 -1.73792,-1.07593 z"
         style="color:#000000;font-style:normal;font-variant:normal;font-weight:normal;font-stretch:normal;font-size:medium;line-height:normal;font-family:sans-serif;text-indent:0;text-align:start;text-decoration:none;text-decoration-line:none;text-decoration-style:solid;text-decoration-color:#000000;letter-spacing:normal;word-spacing:normal;text-transform:none;direction:ltr;block-progression:tb;writing-mode:lr-tb;baseline-shift:baseline;text-anchor:start;white-space:normal;clip-rule:nonzero;display:inline;overflow:visible;visibility:visible;opacity:1;isolation:auto;mix-blend-mode:normal;color-interpolation:sRGB;color-interpolation-filters:linearRGB;solid-color:#000000;solid-opacity:1;fill:#808080;fill-opacity:1;fill-rule:evenodd;stroke:none;stroke-width:5;stroke-linecap:round;stroke-linejoin:miter;stroke-miterlimit:4;stroke-dasharray:none;stroke-dashoffset:0;stroke-opacity:1;color-rendering:auto;image-rendering:auto;shape-rendering:auto;text-rendering:auto;enable-background:accumulate" />
      <path
         inkscape:connector-curvature="0"
         id="path4737"
         d="m -1029.9426,572.66633 c -1.1695,-10e-4 -2.1229,0.97035 -2.1239,2.14249 0,1.17215 0.9499,2.14351 2.119,2.14484 1.08,10e-4 1.9638,-0.82862 2.0959,-1.87819 l 16.4381,0.0175 0,-0.52858 -16.4384,-0.0175 c -0.1294,-1.04915 -1.0143,-1.88157 -2.0932,-1.88287 z"
         style="color:#000000;font-style:normal;font-variant:normal;font-weight:normal;font-stretch:normal;font-size:medium;line-height:normal;font-family:sans-serif;text-indent:0;text-align:start;text-decoration:none;text-decoration-line:none;text-decoration-style:solid;text-decoration-color:#000000;letter-spacing:normal;word-spacing:normal;text-transform:none;direction:ltr;block-progression:tb;writing-mode:lr-tb;baseline-shift:baseline;text-anchor:start;white-space:normal;clip-rule:nonzero;display:inline;overflow:visible;visibility:visible;opacity:1;isolation:auto;mix-blend-mode:normal;color-interpolation:sRGB;color-interpolation-filters:linearRGB;solid-color:#000000;solid-opacity:1;fill:#808080;fill-opacity:1;fill-rule:evenodd;stroke:none;stroke-width:5;stroke-linecap:round;stroke-linejoin:miter;stroke-miterlimit:4;stroke-dasharray:none;stroke-dashoffset:0;stroke-opacity:1;color-rendering:auto;image-rendering:auto;shape-rendering:auto;text-rendering:auto;enable-background:accumulate" />
      <path
         inkscape:connector-curvature="0"
         id="path4735"
         d="m -986.1855,572.71528 c -1.0782,-10e-4 -1.95992,0.82809 -2.09348,1.87584 l -16.44502,-0.0175 0,0.52624 16.44258,0.0175 c 0.12935,1.04995 1.01142,1.88164 2.09103,1.88283 1.1691,10e-4 2.12284,-0.96797 2.12389,-2.14015 0,-1.17214 -0.9499,-2.14585 -2.119,-2.14714 z"
         style="color:#000000;font-style:normal;font-variant:normal;font-weight:normal;font-stretch:normal;font-size:medium;line-height:normal;font-family:sans-serif;text-indent:0;text-align:start;text-decoration:none;text-decoration-line:none;text-decoration-style:solid;text-decoration-color:#000000;letter-spacing:normal;word-spacing:normal;text-transform:none;direction:ltr;block-progression:tb;writing-mode:lr-tb;baseline-shift:baseline;text-anchor:start;white-space:normal;clip-rule:nonzero;display:inline;overflow:visible;visibility:visible;opacity:1;isolation:auto;mix-blend-mode:normal;color-interpolation:sRGB;color-interpolation-filters:linearRGB;solid-color:#000000;solid-opacity:1;fill:#808080;fill-opacity:1;fill-rule:evenodd;stroke:none;stroke-width:5;stroke-linecap:round;stroke-linejoin:miter;stroke-miterlimit:4;stroke-dasharray:none;stroke-dashoffset:0;stroke-opacity:1;color-rendering:auto;image-rendering:auto;shape-rendering:auto;text-rendering:auto;enable-background:accumulate" />
      <path
         inkscape:connector-curvature="0"
         id="path4729"
         d="m -1011.0954,576.29737 -14.2561,8.3337 c -0.3755,-0.49781 -0.9415,-0.82505 -1.5715,-0.85606 -0.4077,-0.021 -0.8125,0.0794 -1.1649,0.28528 -1.01,0.59043 -1.3548,1.9049 -0.7765,2.92371 0.5779,1.01873 1.89,1.37855 2.9,0.78823 0.9352,-0.54669 1.2918,-1.70904 0.8821,-2.68747 l 14.2463,-8.32902 -0.2587,-0.45844 z"
         style="color:#000000;font-style:normal;font-variant:normal;font-weight:normal;font-stretch:normal;font-size:medium;line-height:normal;font-family:sans-serif;text-indent:0;text-align:start;text-decoration:none;text-decoration-line:none;text-decoration-style:solid;text-decoration-color:#000000;letter-spacing:normal;word-spacing:normal;text-transform:none;direction:ltr;block-progression:tb;writing-mode:lr-tb;baseline-shift:baseline;text-anchor:start;white-space:normal;clip-rule:nonzero;display:inline;overflow:visible;visibility:visible;opacity:1;isolation:auto;mix-blend-mode:normal;color-interpolation:sRGB;color-interpolation-filters:linearRGB;solid-color:#000000;solid-opacity:1;fill:#808080;fill-opacity:1;fill-rule:evenodd;stroke:none;stroke-width:5;stroke-linecap:round;stroke-linejoin:miter;stroke-miterlimit:4;stroke-dasharray:none;stroke-dashoffset:0;stroke-opacity:1;color-rendering:auto;image-rendering:auto;shape-rendering:auto;text-rendering:auto;enable-background:accumulate" />
      <path
         inkscape:connector-curvature="0"
         id="path4727"
         d="m -1005.0446,576.30436 -0.2587,0.45841 14.23022,8.35944 c -0.41079,0.97737 -0.0559,2.14144 0.87718,2.68981 1.00863,0.59266 2.32457,0.23634 2.90493,-0.78121 0.58035,-1.01762 0.23773,-2.33352 -0.7716,-2.92604 -0.30766,-0.18075 -0.65622,-0.28109 -1.01282,-0.29018 -0.68489,-0.0175 -1.31804,0.31675 -1.72639,0.85606 l -14.24182,-8.36643 z"
         style="color:#000000;font-style:normal;font-variant:normal;font-weight:normal;font-stretch:normal;font-size:medium;line-height:normal;font-family:sans-serif;text-indent:0;text-align:start;text-decoration:none;text-decoration-line:none;text-decoration-style:solid;text-decoration-color:#000000;letter-spacing:normal;word-spacing:normal;text-transform:none;direction:ltr;block-progression:tb;writing-mode:lr-tb;baseline-shift:baseline;text-anchor:start;white-space:normal;clip-rule:nonzero;display:inline;overflow:visible;visibility:visible;opacity:1;isolation:auto;mix-blend-mode:normal;color-interpolation:sRGB;color-interpolation-filters:linearRGB;solid-color:#000000;solid-opacity:1;fill:#808080;fill-opacity:1;fill-rule:evenodd;stroke:none;stroke-width:5;stroke-linecap:round;stroke-linejoin:miter;stroke-miterlimit:4;stroke-dasharray:none;stroke-dashoffset:0;stroke-opacity:1;color-rendering:auto;image-rendering:auto;shape-rendering:auto;text-rendering:auto;enable-background:accumulate" />
      <path
         inkscape:connector-curvature="0"
         id="path4721"
         d="m -1009.9682,577.63624 -8.2425,14.45475 c -0.2412,-0.10244 -0.4971,-0.17341 -0.7625,-0.18005 -0.7775,-0.021 -1.5037,0.39433 -1.8896,1.07125 -0.5804,1.01754 -0.2378,2.33107 0.7716,2.9237 1.0086,0.59266 2.3224,0.23634 2.9028,-0.78121 0.5377,-0.9428 0.2727,-2.13389 -0.5685,-2.77634 l 8.2379,-14.44772 -0.4492,-0.26431 z"
         style="color:#000000;font-style:normal;font-variant:normal;font-weight:normal;font-stretch:normal;font-size:medium;line-height:normal;font-family:sans-serif;text-indent:0;text-align:start;text-decoration:none;text-decoration-line:none;text-decoration-style:solid;text-decoration-color:#000000;letter-spacing:normal;word-spacing:normal;text-transform:none;direction:ltr;block-progression:tb;writing-mode:lr-tb;baseline-shift:baseline;text-anchor:start;white-space:normal;clip-rule:nonzero;display:inline;overflow:visible;visibility:visible;opacity:1;isolation:auto;mix-blend-mode:normal;color-interpolation:sRGB;color-interpolation-filters:linearRGB;solid-color:#000000;solid-opacity:1;fill:#808080;fill-opacity:1;fill-rule:evenodd;stroke:none;stroke-width:5;stroke-linecap:round;stroke-linejoin:miter;stroke-miterlimit:4;stroke-dasharray:none;stroke-dashoffset:0;stroke-opacity:1;color-rendering:auto;image-rendering:auto;shape-rendering:auto;text-rendering:auto;enable-background:accumulate" />
      <path
         inkscape:connector-curvature="0"
         id="path4716"
         d="m -1006.1742,577.63974 -0.4514,0.2643 8.20962,14.46877 c -0.84047,0.64098 -1.10513,1.82708 -0.57057,2.76932 0.57791,1.01877 1.89035,1.38089 2.90003,0.79057 1.01003,-0.59039 1.35685,-1.90489 0.77894,-2.9237 -0.358,-0.63115 -1.01422,-1.03796 -1.73792,-1.07359 -0.31815,-0.014 -0.62266,0.0619 -0.91214,0.1846 l -8.21656,-14.48045 z"
         style="color:#000000;font-style:normal;font-variant:normal;font-weight:normal;font-stretch:normal;font-size:medium;line-height:normal;font-family:sans-serif;text-indent:0;text-align:start;text-decoration:none;text-decoration-line:none;text-decoration-style:solid;text-decoration-color:#000000;letter-spacing:normal;word-spacing:normal;text-transform:none;direction:ltr;block-progression:tb;writing-mode:lr-tb;baseline-shift:baseline;text-anchor:start;white-space:normal;clip-rule:nonzero;display:inline;overflow:visible;visibility:visible;opacity:1;isolation:auto;mix-blend-mode:normal;color-interpolation:sRGB;color-interpolation-filters:linearRGB;solid-color:#000000;solid-opacity:1;fill:#808080;fill-opacity:1;fill-rule:evenodd;stroke:none;stroke-width:5;stroke-linecap:round;stroke-linejoin:miter;stroke-miterlimit:4;stroke-dasharray:none;stroke-dashoffset:0;stroke-opacity:1;color-rendering:auto;image-rendering:auto;shape-rendering:auto;text-rendering:auto;enable-background:accumulate" />
    </g>
    <path
       style="color:#000000;font-style:normal;font-variant:normal;font-weight:normal;font-stretch:normal;font-size:medium;line-height:normal;font-family:sans-serif;text-indent:0;text-align:start;text-decoration:none;text-decoration-line:none;text-decoration-style:solid;text-decoration-color:#000000;letter-spacing:normal;word-spacing:normal;text-transform:none;direction:ltr;block-progression:tb;writing-mode:lr-tb;baseline-shift:baseline;text-anchor:start;white-space:normal;clip-rule:nonzero;display:inline;overflow:visible;visibility:visible;opacity:1;isolation:auto;mix-blend-mode:normal;color-interpolation:sRGB;color-interpolation-filters:linearRGB;solid-color:#000000;solid-opacity:1;fill:#808080;fill-opacity:1;fill-rule:evenodd;stroke:none;stroke-width:5;stroke-linecap:round;stroke-linejoin:miter;stroke-miterlimit:4;stroke-dasharray:none;stroke-dashoffset:0;stroke-opacity:1;color-rendering:auto;image-rendering:auto;shape-rendering:auto;text-rendering:auto;enable-background:accumulate"
       d="m -1050.168,467.64423 a 1.5611972,1.584673 0 0 0 -1.5641,1.58087 1.5611972,1.584673 0 0 0 1.293,1.56168 l -0.019,17.29359 c 0.089,-0.006 0.1737,-0.0264 0.2639,-0.0264 0.092,0 0.1782,0.02 0.2687,0.0264 l 0.019,-17.2912 a 1.5611972,1.584673 0 0 0 1.2977,-1.55927 1.5611972,1.584673 0 0 0 -1.5592,-1.58567 z m -11.2605,3.03939 a 1.5611972,1.584673 0 0 0 -0.7436,0.21111 1.5611972,1.584673 0 0 0 -0.5757,2.1638 1.5611972,1.584673 0 0 0 1.8903,0.69567 l 8.4968,14.97866 c 0.1464,-0.10144 0.3078,-0.18105 0.4678,-0.26148 l -8.5017,-14.98825 a 1.5611972,1.584673 0 0 0 0.3527,-2.00788 1.5611972,1.584673 0 0 0 -1.2762,-0.79163 1.5611972,1.584673 0 0 0 -0.1104,0 z m 22.5137,0.024 a 1.5611972,1.584673 0 0 0 -1.3914,0.79163 1.5611972,1.584673 0 0 0 0.3502,2.00548 l -8.5352,14.96907 c 0.1596,0.0806 0.3194,0.1623 0.4654,0.26388 l 8.5329,-14.95949 a 1.5611972,1.584673 0 0 0 1.8903,-0.69327 1.5611972,1.584673 0 0 0 -0.5686,-2.1638 1.5611972,1.584673 0 0 0 -0.7436,-0.2135 z m -15.1874,5.72136 a 1.0376557,1.053259 0 0 0 -0.2063,0.0336 1.0376557,1.053259 0 0 0 -0.7341,1.2906 1.0376557,1.053259 0 0 0 1.0051,0.77965 l 2.562,9.75867 c 0.1678,-0.0602 0.3334,-0.12195 0.5111,-0.15833 l -2.5597,-9.73948 a 1.0376557,1.053259 0 0 0 0.4869,-1.18506 1.0376557,1.053259 0 0 0 -0.993,-0.77963 1.0376557,1.053259 0 0 0 -0.072,0 z m 7.7437,0.007 a 1.0376557,1.053259 0 0 0 -0.9621,0.77964 1.0376557,1.053259 0 0 0 0.4847,1.18505 l -2.5813,9.73229 c 0.177,0.0367 0.3416,0.10038 0.5086,0.16072 l 2.586,-9.75147 a 1.0376557,1.053259 0 0 0 1.0051,-0.77965 1.0376557,1.053259 0 0 0 -0.7317,-1.2906 1.0376557,1.053259 0 0 0 -0.3093,-0.036 z m -23.3294,2.57401 a 1.5611972,1.584673 0 0 0 -1.2785,0.78924 1.5611972,1.584673 0 0 0 0.5686,2.16619 1.5611972,1.584673 0 0 0 1.979,-0.35503 l 14.7651,8.67438 c 0.077,-0.16396 0.1545,-0.32712 0.2519,-0.47739 l -14.7507,-8.66478 a 1.5611972,1.584673 0 0 0 -0.6814,-1.9191 1.5611972,1.584673 0 0 0 -0.7435,-0.21351 1.5611972,1.584673 0 0 0 -0.1105,0 z m 38.9029,0.0432 a 1.5611972,1.584673 0 0 0 -0.7436,0.21109 1.5611972,1.584673 0 0 0 -0.6861,1.91671 l -14.7724,8.636 c 0.097,0.15025 0.1783,0.31113 0.2544,0.47499 l 14.7818,-8.6408 a 1.5611972,1.584673 0 0 0 1.979,0.35983 1.5611972,1.584673 0 0 0 0.5758,-2.1638 1.5611972,1.584673 0 0 0 -1.2785,-0.79163 1.5611972,1.584673 0 0 0 -0.1104,-0.002 z m -29.9597,1.28579 a 1.0376557,1.053259 0 0 0 -0.7173,0.30706 1.0376557,1.053259 0 0 0 0,1.48971 1.0376557,1.053259 0 0 0 1.2498,0.16553 l 7.0624,7.18467 c 0.1138,-0.14075 0.2325,-0.27511 0.3645,-0.39822 l -7.0479,-7.16788 a 1.0376557,1.053259 0 0 0 -0.1632,-1.27141 1.0376557,1.053259 0 0 0 -0.7483,-0.30946 z m 21.0934,0.0216 0,0.002 a 1.0376557,1.053259 0 0 0 -0.7196,0.30706 1.0376557,1.053259 0 0 0 -0.1632,1.27141 l -7.0623,7.15349 c 0.1309,0.12275 0.2468,0.25809 0.3598,0.39822 l 7.0792,-7.16788 a 1.0376557,1.053259 0 0 0 1.2546,-0.16553 1.0376557,1.053259 0 0 0 0,-1.48971 1.0376557,1.053259 0 0 0 -0.7485,-0.30946 z m -24.9844,6.76007 a 1.0376557,1.053259 0 0 0 -0.9644,0.77964 1.0376557,1.053259 0 0 0 0.7316,1.2906 1.0376557,1.053259 0 0 0 1.1683,-0.49177 l 9.7251,2.65557 c 0.027,-0.18169 0.071,-0.35537 0.1223,-0.52776 l -9.7082,-2.65077 a 1.0376557,1.053259 0 0 0 -0.7676,-1.01952 1.0376557,1.053259 0 0 0 -0.3071,-0.036 z m 28.8609,0.0312 a 1.0376557,1.053259 0 0 0 -0.2782,0.036 1.0376557,1.053259 0 0 0 -0.7701,1.01713 l -9.713,2.63157 c 0.051,0.17238 0.093,0.34615 0.12,0.52776 l 9.7322,-2.63637 a 1.0376557,1.053259 0 0 0 1.1658,0.49417 1.0376557,1.053259 0 0 0 0.7365,-1.28821 1.0376557,1.053259 0 0 0 -0.9932,-0.78204 z m -36.8588,3.24331 a 1.5611972,1.584673 0 0 0 -1.5617,1.58326 1.5611972,1.584673 0 0 0 1.5593,1.58567 1.5611972,1.584673 0 0 0 1.5377,-1.3122 l 17.0968,0.0192 c -0.01,-0.10783 -0.031,-0.21124 -0.031,-0.32144 0,-0.0757 0.017,-0.14612 0.022,-0.2207 l -17.0848,-0.0192 a 1.5611972,1.584673 0 0 0 -1.5377,-1.31458 z m 44.8783,0.0504 a 1.5611972,1.584673 0 0 0 -1.5376,1.30978 l -17.0872,-0.0192 c 0,0.0722 0.022,0.14028 0.022,0.2135 0,0.11265 -0.022,0.21846 -0.031,0.32864 l 17.0943,0.0192 a 1.5611972,1.584673 0 0 0 1.5378,1.31699 1.5611972,1.584673 0 0 0 1.5617,-1.58326 1.5611972,1.584673 0 0 0 -1.5594,-1.58566 z m -26.1694,2.39408 -9.7826,2.64597 a 1.0376557,1.053259 0 0 0 -0.8876,-0.53015 1.0376557,1.053259 0 0 0 -0.2784,0.036 1.0376557,1.053259 0 0 0 -0.7364,1.2906 1.0376557,1.053259 0 0 0 1.2715,0.74605 1.0376557,1.053259 0 0 0 0.77,-1.01952 l 9.8018,-2.65317 c -0.063,-0.16698 -0.1177,-0.33843 -0.1583,-0.51577 z m 7.4558,0.007 c -0.041,0.17795 -0.094,0.35068 -0.1583,0.51816 l 9.797,2.67476 a 1.0376557,1.053259 0 0 0 0.7676,1.01952 1.0376557,1.053259 0 0 0 1.2714,-0.74365 1.0376557,1.053259 0 0 0 -0.7317,-1.2906 1.0376557,1.053259 0 0 0 -0.3094,-0.036 1.0376557,1.053259 0 0 0 -0.8589,0.52776 l -9.7777,-2.66996 z m -7.1464,0.84201 -14.8275,8.66958 a 1.5611972,1.584673 0 0 0 -1.1227,-0.57093 1.5611972,1.584673 0 0 0 -0.8539,0.21111 1.5611972,1.584673 0 0 0 -0.5734,2.16378 1.5611972,1.584673 0 0 0 2.1302,0.58294 1.5611972,1.584673 0 0 0 0.6861,-1.91671 l 14.8226,-8.66479 c -0.1012,-0.14885 -0.181,-0.31196 -0.2614,-0.47498 z m 6.8345,0.007 c -0.081,0.16329 -0.1619,0.32597 -0.2638,0.47498 l 14.8058,8.69597 a 1.5611972,1.584673 0 0 0 0.6813,1.91912 1.5611972,1.584673 0 0 0 2.135,-0.57815 1.5611972,1.584673 0 0 0 -0.5709,-2.16619 1.5611972,1.584673 0 0 0 -0.7436,-0.2111 1.5611972,1.584673 0 0 0 -1.233,0.56854 l -14.8108,-8.70317 z m -6.2348,0.88278 -7.2182,7.31181 a 1.0376557,1.053259 0 0 0 -0.5325,-0.14392 l 0,0 a 1.0376557,1.053259 0 0 0 -0.7173,0.30945 1.0376557,1.053259 0 0 0 0,1.48971 1.0376557,1.053259 0 0 0 1.4683,0 1.0376557,1.053259 0 0 0 0.1606,-1.27141 l 7.235,-7.3262 c -0.1387,-0.11563 -0.272,-0.2354 -0.3934,-0.36944 z m 5.6327,0.01 c -0.1206,0.13238 -0.2535,0.25036 -0.391,0.36464 l 7.2183,7.34299 a 1.0376557,1.053259 0 0 0 0.1606,1.27141 1.0376557,1.053259 0 0 0 1.4682,0.002 1.0376557,1.053259 0 0 0 0,-1.48971 1.0376557,1.053259 0 0 0 -0.7484,-0.30946 1.0376557,1.053259 0 0 0 -0.5038,0.14394 l -7.2039,-7.32621 z m -4.9393,0.60453 -8.5761,15.03863 a 1.5611972,1.584673 0 0 0 -0.499,-0.0984 1.5611972,1.584673 0 0 0 -1.3913,0.78924 1.5611972,1.584673 0 0 0 0.5709,2.16619 1.5611972,1.584673 0 0 0 2.1327,-0.57812 1.5611972,1.584673 0 0 0 -0.3503,-2.00788 l 8.5832,-15.05063 c -0.1612,-0.0785 -0.3225,-0.15933 -0.4701,-0.25907 z m 4.246,0.005 c -0.147,0.0988 -0.3073,0.17885 -0.4677,0.25667 l 8.5471,15.07223 a 1.5611972,1.584673 0 0 0 -0.3526,2.00547 1.5611972,1.584673 0 0 0 2.1302,0.58293 1.5611972,1.584673 0 0 0 0.5758,-2.1638 1.5611972,1.584673 0 0 0 -1.2787,-0.79163 1.5611972,1.584673 0 0 0 -0.6116,0.0959 l -8.5425,-15.05782 z"
       id="path3460"
       inkscape:connector-curvature="0"
       inkscape:export-filename="/home/blau/public_html/dandelion-alpha-04/favicon.png"
       inkscape:export-xdpi="90"
       inkscape:export-ydpi="90" />
    <rect
       ry="19.217131"
       rx="18.929554"
       y="474.88281"
       x="840.65094"
       height="38.434261"
       width="37.859108"
       id="rect3469"
       style="color:#000000;clip-rule:nonzero;display:inline;overflow:visible;visibility:visible;opacity:1;isolation:auto;mix-blend-mode:normal;color-interpolation:sRGB;color-interpolation-filters:linearRGB;solid-color:#000000;solid-opacity:1;fill:#ececec;fill-opacity:1;fill-rule:nonzero;stroke:none;stroke-width:1;stroke-linecap:butt;stroke-linejoin:miter;stroke-miterlimit:4;stroke-dasharray:none;stroke-dashoffset:0;stroke-opacity:1;color-rendering:auto;image-rendering:auto;shape-rendering:auto;text-rendering:auto;enable-background:accumulate"
       transform="scale(-1,1)" />
    <g
       id="g3503"
       transform="matrix(0.96380698,0,0,0.96380698,-43.099863,22.143333)"
       inkscape:export-xdpi="90"
       inkscape:export-ydpi="90">
      <g
         transform="matrix(0.85524974,0,0,0.85524974,-367.08498,149.60693)"
         id="g3499">
        <rect
           transform="scale(-1,1)"
           style="color:#000000;clip-rule:nonzero;display:inline;overflow:visible;visibility:visible;opacity:1;isolation:auto;mix-blend-mode:normal;color-interpolation:sRGB;color-interpolation-filters:linearRGB;solid-color:#000000;solid-opacity:1;fill:#ececec;fill-opacity:1;fill-rule:nonzero;stroke:none;stroke-width:1;stroke-linecap:butt;stroke-linejoin:miter;stroke-miterlimit:4;stroke-dasharray:none;stroke-dashoffset:0;stroke-opacity:1;color-rendering:auto;image-rendering:auto;shape-rendering:auto;text-rendering:auto;enable-background:accumulate"
           id="rect3491"
           width="44.88546"
           height="45.567356"
           x="916.99738"
           y="469.14532"
           rx="22.44273"
           ry="22.783678" />
        <path
           inkscape:connector-curvature="0"
           id="path3465"
           d="m -939.13953,467.64366 a 1.5612167,1.5846928 0 0 0 -1.5641,1.58089 1.5612167,1.5846928 0 0 0 1.293,1.5617 l -0.019,17.2938 c 0.089,-0.006 0.1737,-0.0264 0.2639,-0.0264 0.092,0 0.1782,0.02 0.2687,0.0264 l 0.019,-17.29141 a 1.5612167,1.5846928 0 0 0 1.2977,-1.55929 1.5612167,1.5846928 0 0 0 -1.5592,-1.58569 z m -11.2606,3.03943 a 1.5612167,1.5846928 0 0 0 -0.7436,0.21111 1.5612167,1.5846928 0 0 0 -0.5758,2.16383 1.5612167,1.5846928 0 0 0 1.8904,0.69567 l 8.4969,14.97885 c 0.1464,-0.10144 0.3078,-0.18105 0.4678,-0.26148 l -8.5018,-14.98844 a 1.5612167,1.5846928 0 0 0 0.3527,-2.0079 1.5612167,1.5846928 0 0 0 -1.2762,-0.79164 1.5612167,1.5846928 0 0 0 -0.1104,0 z m 22.5139,0.024 a 1.5612167,1.5846928 0 0 0 -1.3914,0.79164 1.5612167,1.5846928 0 0 0 0.3502,2.0055 l -8.5353,14.96926 c 0.1596,0.0806 0.3194,0.1623 0.4654,0.26388 l 8.533,-14.95967 a 1.5612167,1.5846928 0 0 0 1.8904,-0.69328 1.5612167,1.5846928 0 0 0 -0.5686,-2.16383 1.5612167,1.5846928 0 0 0 -0.7437,-0.2135 z m -15.1875,5.72143 a 1.0376687,1.0532722 0 0 0 -0.2064,0.0336 1.0376687,1.0532722 0 0 0 -0.7341,1.29061 1.0376687,1.0532722 0 0 0 1.0052,0.77966 l 2.562,9.7588 c 0.1678,-0.0602 0.3334,-0.12195 0.5111,-0.15834 l -2.5597,-9.7396 a 1.0376687,1.0532722 0 0 0 0.4869,-1.18507 1.0376687,1.0532722 0 0 0 -0.993,-0.77964 1.0376687,1.0532722 0 0 0 -0.072,0 z m 7.7437,0.007 a 1.0376687,1.0532722 0 0 0 -0.9621,0.77965 1.0376687,1.0532722 0 0 0 0.4847,1.18506 l -2.5813,9.73241 c 0.177,0.0367 0.3416,0.10039 0.5086,0.16073 l 2.586,-9.7516 a 1.0376687,1.0532722 0 0 0 1.0052,-0.77965 1.0376687,1.0532722 0 0 0 -0.7317,-1.29062 1.0376687,1.0532722 0 0 0 -0.3094,-0.036 z m -23.3296,2.57404 a 1.5612167,1.5846928 0 0 0 -1.2786,0.78925 1.5612167,1.5846928 0 0 0 0.5686,2.16622 1.5612167,1.5846928 0 0 0 1.9791,-0.35504 l 14.7653,8.67449 c 0.077,-0.16396 0.1545,-0.32712 0.2519,-0.47739 l -14.7509,-8.66489 a 1.5612167,1.5846928 0 0 0 -0.6814,-1.91913 1.5612167,1.5846928 0 0 0 -0.7435,-0.21351 1.5612167,1.5846928 0 0 0 -0.1105,0 z m 38.9033,0.0432 a 1.5612167,1.5846928 0 0 0 -0.7436,0.21109 1.5612167,1.5846928 0 0 0 -0.6861,1.91674 l -14.7726,8.63611 c 0.097,0.15025 0.1783,0.31113 0.2544,0.47499 l 14.782,-8.64091 a 1.5612167,1.5846928 0 0 0 1.9791,0.35984 1.5612167,1.5846928 0 0 0 0.5758,-2.16383 1.5612167,1.5846928 0 0 0 -1.2786,-0.79164 1.5612167,1.5846928 0 0 0 -0.1104,-0.002 z m -29.96,1.28581 a 1.0376687,1.0532722 0 0 0 -0.7173,0.30706 1.0376687,1.0532722 0 0 0 0,1.48973 1.0376687,1.0532722 0 0 0 1.2498,0.16553 l 7.0625,7.18476 c 0.1138,-0.14075 0.2325,-0.27511 0.3645,-0.39822 l -7.048,-7.16797 a 1.0376687,1.0532722 0 0 0 -0.1632,-1.27143 1.0376687,1.0532722 0 0 0 -0.7483,-0.30946 z m 21.0936,0.0216 0,0.002 a 1.0376687,1.0532722 0 0 0 -0.7196,0.30706 1.0376687,1.0532722 0 0 0 -0.1632,1.27143 l -7.0624,7.15358 c 0.1309,0.12275 0.2468,0.25809 0.3598,0.39822 l 7.0793,-7.16797 a 1.0376687,1.0532722 0 0 0 1.2546,-0.16553 1.0376687,1.0532722 0 0 0 0,-1.48973 1.0376687,1.0532722 0 0 0 -0.7485,-0.30946 z m -24.9847,6.76015 a 1.0376687,1.0532722 0 0 0 -0.9644,0.77965 1.0376687,1.0532722 0 0 0 0.7316,1.29062 1.0376687,1.0532722 0 0 0 1.1683,-0.49178 l 9.7253,2.65561 c 0.027,-0.1817 0.071,-0.35538 0.1223,-0.52777 l -9.7084,-2.6508 a 1.0376687,1.0532722 0 0 0 -0.7676,-1.01954 1.0376687,1.0532722 0 0 0 -0.3071,-0.036 z m 28.8613,0.0312 a 1.0376687,1.0532722 0 0 0 -0.2782,0.036 1.0376687,1.0532722 0 0 0 -0.7701,1.01715 l -9.7132,2.6316 c 0.051,0.17238 0.093,0.34615 0.12,0.52777 l 9.7324,-2.63641 a 1.0376687,1.0532722 0 0 0 1.1658,0.49418 1.0376687,1.0532722 0 0 0 0.7365,-1.28823 1.0376687,1.0532722 0 0 0 -0.9932,-0.78205 z m -36.8593,3.24335 a 1.5612167,1.5846928 0 0 0 -1.5617,1.58328 1.5612167,1.5846928 0 0 0 1.5593,1.58569 1.5612167,1.5846928 0 0 0 1.5377,-1.31221 l 17.0971,0.0192 c -0.01,-0.10783 -0.031,-0.21125 -0.031,-0.32145 0,-0.0757 0.017,-0.14612 0.022,-0.2207 l -17.0851,-0.0192 a 1.5612167,1.5846928 0 0 0 -1.5377,-1.3146 z m 44.8789,0.0504 a 1.5612167,1.5846928 0 0 0 -1.5376,1.3098 l -17.0875,-0.0192 c 0,0.0722 0.022,0.14028 0.022,0.2135 0,0.11265 -0.022,0.21847 -0.031,0.32865 l 17.0946,0.0192 a 1.5612167,1.5846928 0 0 0 1.5378,1.317 1.5612167,1.5846928 0 0 0 1.5617,-1.58328 1.5612167,1.5846928 0 0 0 -1.5594,-1.58568 z m -26.1697,2.39411 -9.7828,2.64601 a 1.0376687,1.0532722 0 0 0 -0.8876,-0.53016 1.0376687,1.0532722 0 0 0 -0.2784,0.036 1.0376687,1.0532722 0 0 0 -0.7364,1.29062 1.0376687,1.0532722 0 0 0 1.2715,0.74606 1.0376687,1.0532722 0 0 0 0.77,-1.01954 l 9.802,-2.6532 c -0.063,-0.16698 -0.1177,-0.33843 -0.1583,-0.51578 z m 7.4558,0.007 c -0.041,0.17796 -0.094,0.35069 -0.1583,0.51817 l 9.7972,2.67479 a 1.0376687,1.0532722 0 0 0 0.7676,1.01954 1.0376687,1.0532722 0 0 0 1.2714,-0.74366 1.0376687,1.0532722 0 0 0 -0.7317,-1.29062 1.0376687,1.0532722 0 0 0 -0.3094,-0.036 1.0376687,1.0532722 0 0 0 -0.8589,0.52777 l -9.7779,-2.67 z m -7.1464,0.84202 -14.8277,8.66969 a 1.5612167,1.5846928 0 0 0 -1.1227,-0.57093 1.5612167,1.5846928 0 0 0 -0.854,0.21111 1.5612167,1.5846928 0 0 0 -0.5734,2.16381 1.5612167,1.5846928 0 0 0 2.1303,0.58294 1.5612167,1.5846928 0 0 0 0.6861,-1.91673 l 14.8228,-8.6649 c -0.1012,-0.14885 -0.181,-0.31196 -0.2614,-0.47499 z m 6.8345,0.007 c -0.081,0.1633 -0.1619,0.32598 -0.2638,0.47499 l 14.806,8.69608 a 1.5612167,1.5846928 0 0 0 0.6813,1.91914 1.5612167,1.5846928 0 0 0 2.1351,-0.57815 1.5612167,1.5846928 0 0 0 -0.5709,-2.16622 1.5612167,1.5846928 0 0 0 -0.7437,-0.2111 1.5612167,1.5846928 0 0 0 -1.233,0.56854 l -14.811,-8.70328 z m -6.2348,0.8828 -7.2183,7.3119 a 1.0376687,1.0532722 0 0 0 -0.5325,-0.14392 l 0,0 a 1.0376687,1.0532722 0 0 0 -0.7173,0.30945 1.0376687,1.0532722 0 0 0 0,1.48973 1.0376687,1.0532722 0 0 0 1.4683,0 1.0376687,1.0532722 0 0 0 0.1606,-1.27143 l 7.2351,-7.32629 c -0.1387,-0.11563 -0.272,-0.2354 -0.3934,-0.36944 z m 5.6327,0.01 c -0.1206,0.13238 -0.2535,0.25036 -0.391,0.36464 l 7.2184,7.34308 a 1.0376687,1.0532722 0 0 0 0.1606,1.27143 1.0376687,1.0532722 0 0 0 1.4682,0.002 1.0376687,1.0532722 0 0 0 0,-1.48973 1.0376687,1.0532722 0 0 0 -0.7484,-0.30946 1.0376687,1.0532722 0 0 0 -0.5038,0.14394 l -7.204,-7.3263 z m -4.9393,0.60453 -8.5762,15.03882 a 1.5612167,1.5846928 0 0 0 -0.499,-0.0984 1.5612167,1.5846928 0 0 0 -1.3914,0.78925 1.5612167,1.5846928 0 0 0 0.5709,2.16622 1.5612167,1.5846928 0 0 0 2.1328,-0.57813 1.5612167,1.5846928 0 0 0 -0.3503,-2.00791 l 8.5833,-15.05081 c -0.1612,-0.0785 -0.3225,-0.15934 -0.4701,-0.25908 z m 4.246,0.005 c -0.147,0.0988 -0.3073,0.17886 -0.4677,0.25668 l 8.5472,15.07241 a 1.5612167,1.5846928 0 0 0 -0.3526,2.0055 1.5612167,1.5846928 0 0 0 2.1303,0.58294 1.5612167,1.5846928 0 0 0 0.5758,-2.16383 1.5612167,1.5846928 0 0 0 -1.2788,-0.79164 1.5612167,1.5846928 0 0 0 -0.6116,0.0959 l -8.5426,-15.05801 z"
           style="color:#000000;font-style:normal;font-variant:normal;font-weight:normal;font-stretch:normal;font-size:medium;line-height:normal;font-family:sans-serif;text-indent:0;text-align:start;text-decoration:none;text-decoration-line:none;text-decoration-style:solid;text-decoration-color:#000000;letter-spacing:normal;word-spacing:normal;text-transform:none;direction:ltr;block-progression:tb;writing-mode:lr-tb;baseline-shift:baseline;text-anchor:start;white-space:normal;clip-rule:nonzero;display:inline;overflow:visible;visibility:visible;opacity:1;isolation:auto;mix-blend-mode:normal;color-interpolation:sRGB;color-interpolation-filters:linearRGB;solid-color:#000000;solid-opacity:1;fill:#b3b3b3;fill-opacity:1;fill-rule:evenodd;stroke:none;stroke-width:5;stroke-linecap:round;stroke-linejoin:miter;stroke-miterlimit:4;stroke-dasharray:none;stroke-dashoffset:0;stroke-opacity:1;color-rendering:auto;image-rendering:auto;shape-rendering:auto;text-rendering:auto;enable-background:accumulate" />
      </g>
      <path
         inkscape:connector-curvature="0"
         id="path3473"
         d="m -1170.0915,574.69645 a 0.42104418,0.42739983 0 0 1 0.2953,0.40871 c 0.1636,13.58513 -3.3617,25.62955 -9.6318,36.49203 a 0.42104418,0.42739983 0 1 1 -0.7265,-0.43215 c 6.2025,-10.74547 9.6782,-22.62028 9.5165,-36.04937 a 0.42104418,0.42739983 0 0 1 0.5465,-0.41921 z"
         style="color:#000000;font-style:normal;font-variant:normal;font-weight:normal;font-stretch:normal;font-size:medium;line-height:normal;font-family:sans-serif;text-indent:0;text-align:start;text-decoration:none;text-decoration-line:none;text-decoration-style:solid;text-decoration-color:#000000;letter-spacing:normal;word-spacing:normal;text-transform:none;direction:ltr;block-progression:tb;writing-mode:lr-tb;baseline-shift:baseline;text-anchor:start;white-space:normal;clip-rule:nonzero;display:inline;overflow:visible;visibility:visible;opacity:1;isolation:auto;mix-blend-mode:normal;color-interpolation:sRGB;color-interpolation-filters:linearRGB;solid-color:#000000;solid-opacity:1;fill:#b3b3b3;fill-opacity:1;fill-rule:evenodd;stroke:none;stroke-width:7;stroke-linecap:round;stroke-linejoin:miter;stroke-miterlimit:4;stroke-dasharray:none;stroke-dashoffset:0;stroke-opacity:1;color-rendering:auto;image-rendering:auto;shape-rendering:auto;text-rendering:auto;enable-background:accumulate" />
    </g>
    <g
       transform="matrix(-0.08686873,-9.7003325e-5,-9.5557022e-5,0.08817498,-902.51929,479.01631)"
       id="g3475"
       style="fill:#b3b3b3">
      <path
         inkscape:connector-curvature="0"
         style="color:#000000;font-style:normal;font-variant:normal;font-weight:normal;font-stretch:normal;font-size:medium;line-height:normal;font-family:sans-serif;text-indent:0;text-align:start;text-decoration:none;text-decoration-line:none;text-decoration-style:solid;text-decoration-color:#000000;letter-spacing:normal;word-spacing:normal;text-transform:none;direction:ltr;block-progression:tb;writing-mode:lr-tb;baseline-shift:baseline;text-anchor:start;white-space:normal;clip-rule:nonzero;display:inline;overflow:visible;visibility:visible;opacity:1;isolation:auto;mix-blend-mode:normal;color-interpolation:sRGB;color-interpolation-filters:linearRGB;solid-color:#000000;solid-opacity:1;fill:#b3b3b3;fill-opacity:1;fill-rule:evenodd;stroke:none;stroke-width:5;stroke-linecap:round;stroke-linejoin:miter;stroke-miterlimit:4;stroke-dasharray:none;stroke-dashoffset:0;stroke-opacity:1;color-rendering:auto;image-rendering:auto;shape-rendering:auto;text-rendering:auto;enable-background:accumulate"
         d="m -496.98633,-35.671875 0,177.630855 5,0 0,-177.630855 -5,0 z m -100.22265,26.8554688 -4.33204,2.5 88.81641,153.8320262 4.33203,-2.5 -88.8164,-153.8320262 z m 205.44531,0 -88.81445,153.8320262 4.33203,2.5 88.81445,-153.8320262 -4.33203,-2.5 z m -136.39453,48.5546872 -4.82813,1.292969 30.55664,114.03906 4.82813,-1.29297 -30.55664,-114.039059 z m 67.3457,0 -30.55664,114.039059 4.82812,1.29297 30.55664,-114.03906 -4.82812,-1.292969 z m -214.0957,27.3125 -2.5,4.332031 153.83203,88.816408 2.5,-4.33203 -153.83203,-88.816409 z m 360.84375,0 -153.83203,88.814449 2.5,4.33204 153.83203,-88.814458 -2.5,-4.332031 z m -277.2461,7.652344 -3.53515,3.535156 83.48437,83.482419 3.53516,-3.53515 -83.48438,-83.482425 z m 193.64844,0 -83.48242,83.482425 3.53515,3.53515 83.48243,-83.482419 -3.53516,-3.535156 z m -230.85547,61.857425 -1.29297,4.82812 114.03907,30.55664 1.29296,-4.82812 -114.03906,-30.55664 z m 268.0625,0 -114.03906,30.55664 1.29297,4.82812 114.03906,-30.55664 -1.29297,-4.82812 z m -343.80859,35.04492 0,5 177.63086,0 0,-5 -177.63086,0 z m 241.92383,0 0,5 177.63086,0 0,-5 -177.63086,0 z m -53.43164,6.57226 -114.03907,30.55665 1.29297,4.82812 114.03906,-30.55664 -1.29296,-4.82813 z m 42.57031,0 -1.29297,4.82813 114.03906,30.55664 1.29297,-4.82812 -114.03906,-30.55665 z m -50.375,9.83594 -153.83203,88.81445 2.5,4.33204 153.83203,-88.81446 -2.5,-4.33203 z m 58.17969,0 -2.5,4.33203 153.83203,88.81446 2.5,-4.33204 -153.83203,-88.81445 z m -45.96485,0.38867 -83.48437,83.48243 3.53515,3.53515 83.48438,-83.48242 -3.53516,-3.53516 z m 33.75195,0 -3.53515,3.53516 83.48242,83.48242 3.53516,-3.53515 -83.48243,-83.48243 z m -35.11523,12.29297 -88.81641,153.83203 4.33204,2.5 88.8164,-153.83203 -4.33203,-2.5 z m 36.47852,0 -4.33203,2.5 88.81445,153.83203 4.33203,-2.5 -88.81445,-153.83203 z"
         id="path3477" />
      <path
         inkscape:connector-curvature="0"
         style="color:#000000;clip-rule:nonzero;display:inline;overflow:visible;visibility:visible;opacity:1;isolation:auto;mix-blend-mode:normal;color-interpolation:sRGB;color-interpolation-filters:linearRGB;solid-color:#000000;solid-opacity:1;fill:#b3b3b3;fill-opacity:1;fill-rule:nonzero;stroke:#cccccc;stroke-width:11.42602921;stroke-linecap:butt;stroke-linejoin:miter;stroke-miterlimit:4;stroke-dasharray:none;stroke-dashoffset:0;stroke-opacity:1;color-rendering:auto;image-rendering:auto;shape-rendering:auto;text-rendering:auto;enable-background:accumulate"
         d="m -494.48633,-50.841797 a 14.632344,14.632344 0 0 0 -14.63281,14.632813 14.632344,14.632344 0 0 0 14.63281,14.632812 14.632344,14.632344 0 0 0 14.63281,-14.632812 14.632344,14.632344 0 0 0 -14.63281,-14.632813 z m -105.50195,28.181641 a 14.632344,14.632344 0 0 0 -6.9707,1.955078 14.632344,14.632344 0 0 0 -5.35743,19.98828112 14.632344,14.632344 0 0 0 19.98829,5.35546878 14.632344,14.632344 0 0 0 5.35742,-19.9863279 14.632344,14.632344 0 0 0 -13.01758,-7.3125 z m 209.96875,0.01172 a 14.632344,14.632344 0 0 0 -11.98047,7.30078 14.632344,14.632344 0 0 0 5.35547,19.9863279 14.632344,14.632344 0 0 0 19.98828,-5.35546878 14.632344,14.632344 0 0 0 -5.35547,-19.98828112 14.632344,14.632344 0 0 0 -8.00781,-1.94336 z m -68.375,52.962891 a 9.7254438,9.7254438 0 0 0 -9.30664,7.207031 9.7254438,9.7254438 0 0 0 6.87695,11.91211 9.7254438,9.7254438 0 0 0 11.91211,-6.876953 9.7254438,9.7254438 0 0 0 -6.87695,-11.91211 9.7254438,9.7254438 0 0 0 -2.60547,-0.330078 z m -71.90039,0.0059 a 9.7254438,9.7254438 0 0 0 -2.88672,0.324219 9.7254438,9.7254438 0 0 0 -6.87695,11.91211 9.7254438,9.7254438 0 0 0 11.91015,6.876953 9.7254438,9.7254438 0 0 0 6.87696,-11.91211 9.7254438,9.7254438 0 0 0 -9.02344,-7.201172 z m 217.60156,24 a 14.632344,14.632344 0 0 0 -6.9707,1.955079 14.632344,14.632344 0 0 0 -5.35547,19.988281 14.632344,14.632344 0 0 0 19.98828,5.357422 14.632344,14.632344 0 0 0 5.35547,-19.988282 14.632344,14.632344 0 0 0 -13.01758,-7.3125 z m -364.62109,0.01172 a 14.632344,14.632344 0 0 0 -11.98243,7.300781 14.632344,14.632344 0 0 0 5.35743,19.988282 14.632344,14.632344 0 0 0 19.98828,-5.357422 14.632344,14.632344 0 0 0 -5.35742,-19.988281 14.632344,14.632344 0 0 0 -8.00586,-1.94336 z m 84.12695,12.16211 a 9.7254438,9.7254438 0 0 0 -7.01953,2.847656 9.7254438,9.7254438 0 0 0 0,13.753906 9.7254438,9.7254438 0 0 0 13.75391,0 9.7254438,9.7254438 0 0 0 0,-13.753906 9.7254438,9.7254438 0 0 0 -6.73438,-2.847656 z m 197.6875,0 a 9.7254438,9.7254438 0 0 0 -7.01953,2.847656 9.7254438,9.7254438 0 0 0 0,13.753906 9.7254438,9.7254438 0 0 0 13.75391,0 9.7254438,9.7254438 0 0 0 0,-13.753906 9.7254438,9.7254438 0 0 0 -6.73438,-2.8477 z M -629.59766,129.1582 a 9.7254438,9.7254438 0 0 0 -9.30664,7.20703 9.7254438,9.7254438 0 0 0 6.87696,11.91211 9.7254438,9.7254438 0 0 0 11.91211,-6.87695 9.7254438,9.7254438 0 0 0 -6.87696,-11.91211 9.7254438,9.7254438 0 0 0 -2.60547,-0.33008 z m 270.50586,0.006 a 9.7254438,9.7254438 0 0 0 -2.88867,0.32422 9.7254438,9.7254438 0 0 0 -6.87695,11.91211 9.7254438,9.7254438 0 0 0 11.91211,6.87695 9.7254438,9.7254438 0 0 0 6.87695,-11.91211 9.7254438,9.7254438 0 0 0 -9.02344,-7.20117 z m -345.70898,30.3086 a 14.632344,14.632344 0 0 0 -14.63281,14.63281 14.632344,14.632344 0 0 0 14.63281,14.63281 14.632344,14.632344 0 0 0 14.63281,-14.63281 14.632344,14.632344 0 0 0 -14.63281,-14.63281 z m 420.6289,0 a 14.632344,14.632344 0 0 0 -14.63085,14.63281 14.632344,14.632344 0 0 0 14.63085,14.63281 14.632344,14.632344 0 0 0 14.63282,-14.63281 14.632344,14.632344 0 0 0 -14.63282,-14.63281 z m -75.3789,42.04296 a 9.7254438,9.7254438 0 0 0 -9.30664,7.20899 9.7254438,9.7254438 0 0 0 6.87695,11.91016 9.7254438,9.7254438 0 0 0 11.91211,-6.87696 9.7254438,9.7254438 0 0 0 -6.87695,-11.91015 9.7254438,9.7254438 0 0 0 -2.60547,-0.33204 z m -269.58789,0.008 a 9.7254438,9.7254438 0 0 0 -2.88867,0.32422 9.7254438,9.7254438 0 0 0 -6.87696,11.91015 9.7254438,9.7254438 0 0 0 11.91211,6.87696 9.7254438,9.7254438 0 0 0 6.87696,-11.91016 9.7254438,9.7254438 0 0 0 -9.02344,-7.20117 z m 35.95117,62.6582 a 9.7254438,9.7254438 0 0 0 -7.01953,2.84766 9.7254438,9.7254438 0 0 0 0,13.7539 9.7254438,9.7254438 0 0 0 13.75391,0 9.7254438,9.7254438 0 0 0 0,-13.7539 9.7254438,9.7254438 0 0 0 -6.73438,-2.84766 z m 197.6875,0 a 9.7254438,9.7254438 0 0 0 -7.01953,2.84766 9.7254438,9.7254438 0 0 0 0,13.7539 9.7254438,9.7254438 0 0 0 13.75391,0 9.7254438,9.7254438 0 0 0 0,-13.7539 9.7254438,9.7254438 0 0 0 -6.73438,-2.84766 z m -281.46875,0.45313 a 14.632344,14.632344 0 0 0 -6.9707,1.95703 14.632344,14.632344 0 0 0 -5.35743,19.98828 14.632344,14.632344 0 0 0 19.98829,5.35547 14.632344,14.632344 0 0 0 5.35742,-19.98828 14.632344,14.632344 0 0 0 -13.01758,-7.3125 z m 363.92969,0.0117 a 14.632344,14.632344 0 0 0 -11.98047,7.30079 14.632344,14.632344 0 0 0 5.35547,19.98828 14.632344,14.632344 0 0 0 19.98828,-5.35547 14.632344,14.632344 0 0 0 -5.35547,-19.98828 14.632344,14.632344 0 0 0 -8.00781,-1.94532 z m -76.63477,76.96875 a 14.632344,14.632344 0 0 0 -6.9707,1.95704 14.632344,14.632344 0 0 0 -5.35547,19.98828 14.632344,14.632344 0 0 0 19.98828,5.35547 14.632344,14.632344 0 0 0 5.35547,-19.98829 14.632344,14.632344 0 0 0 -13.01758,-7.3125 z m -210.66015,0.0117 a 14.632344,14.632344 0 0 0 -11.98047,7.30078 14.632344,14.632344 0 0 0 5.35547,19.98829 14.632344,14.632344 0 0 0 19.98828,-5.35547 14.632344,14.632344 0 0 0 -5.35742,-19.98828 14.632344,14.632344 0 0 0 -8.00586,-1.94532 z"
         id="path3479" />
    </g>
  </g>
</svg>
